# Exported from Wings 3D 0.99.00b
mtllib d12wings.mtl
o dodecahedr
#224 vertices, 234 faces
v 2.0879132e-14 1.28820586 -0.49205086
v 0.0000000e+0 1.28820586 -0.49205086
v -2.0879132e-14 1.28820586 -0.49205086
v -0.79615498 -0.79615498 -0.79615498
v -1.9086659e-2 -1.27501559 -0.51200253
v -2.9760627e-2 -1.28161240 -0.49473172
v -0.78028381 -0.81776357 -0.78140604
v -0.76960987 -0.81116670 -0.79867691
v -0.51200253 -1.9086659e-2 -1.27501559
v -0.49473172 -2.9760627e-2 -1.28161240
v -0.78140604 -0.78028381 -0.81776357
v -0.79867691 -0.76960987 -0.81116670
v -0.79463285 0.81790686 -0.75697470
v -1.26246893 0.52876824 -1.8871096e-24
v -0.79463285 0.81790686 0.75697470
v -3.7658140e-2 1.28574300 0.46783611
v -3.7658140e-2 1.28574300 -0.46783611
v -1.26246893 -0.52876824 1.8871096e-24
v -0.79463285 -0.81790686 -0.75697470
v -3.7658140e-2 -1.28574300 -0.46783611
v -3.7658140e-2 -1.28574300 0.46783611
v -0.79463285 -0.81790686 0.75697470
v 0.52876824 5.5796467e-24 1.26246893
v 0.81790686 -0.75697470 0.79463285
v 1.28574300 -0.46783611 3.7658140e-2
v 1.28574300 0.46783611 3.7658140e-2
v 0.81790686 0.75697470 0.79463285
v -0.81790686 -0.75697470 0.79463285
v -0.52876824 5.5796467e-24 1.26246893
v -0.81790686 0.75697470 0.79463285
v -1.28574300 0.46783611 3.7658140e-2
v -1.28574300 -0.46783611 3.7658140e-2
v -1.27501559 -0.51200253 -1.9086659e-2
v -1.28161240 -0.49473172 -2.9760627e-2
v -0.81776357 -0.78140604 -0.78028381
v -0.81116670 -0.79867691 -0.76960987
v 0.79463285 -0.81790686 -0.75697470
v 1.26246893 -0.52876824 1.8871096e-24
v 0.79463285 -0.81790686 0.75697470
v 3.7658140e-2 -1.28574300 0.46783611
v 3.7658140e-2 -1.28574300 -0.46783611
v 0.79615498 -0.79615498 0.79615498
v 0.79867691 0.76960987 0.81116670
v 0.78140604 0.78028381 0.81776357
v 0.49473172 2.9760627e-2 1.28161240
v 0.51200253 1.9086659e-2 1.27501559
v 0.51200253 1.9086659e-2 -1.27501559
v 0.49473172 2.9760627e-2 -1.28161240
v 0.78140604 0.78028381 -0.81776357
v 0.79867691 0.76960987 -0.81116670
v 0.0000000e+0 -1.28820586 -0.49205086
v 2.0879132e-14 -1.28820586 -0.49205086
v -2.0879132e-14 -1.28820586 -0.49205086
v -0.49205086 2.0935579e-24 -1.28820586
v -0.49205086 2.0879133e-14 -1.28820586
v -0.49205086 -2.0882600e-14 -1.28820586
v 1.28161240 -0.49473172 -2.9760627e-2
v 1.27501559 -0.51200253 -1.9086659e-2
v 0.81116670 -0.79867691 -0.76960987
v 0.81776357 -0.78140604 -0.78028381
v 1.27501559 0.51200253 -1.9086659e-2
v 1.28161240 0.49473172 -2.9760627e-2
v 0.81776357 0.78140604 -0.78028381
v 0.81116670 0.79867691 -0.76960987
v 0.46783611 -3.7658140e-2 1.28574300
v -0.46783611 -3.7658140e-2 1.28574300
v -0.75697470 -0.79463285 0.81790686
v 1.2366579e-18 -1.26246893 0.52876824
v 0.75697470 -0.79463285 0.81790686
v 1.9086659e-2 -1.27501559 0.51200253
v 2.9760627e-2 -1.28161240 0.49473172
v 0.78028381 -0.81776357 0.78140604
v 0.76960987 -0.81116670 0.79867691
v 1.28161240 0.49473172 2.9760627e-2
v 1.27501559 0.51200253 1.9086659e-2
v 0.81116670 0.79867691 0.76960987
v 0.81776357 0.78140604 0.78028381
v 1.26246893 0.52876824 -1.8871096e-24
v 0.79463285 0.81790686 -0.75697470
v 3.7658140e-2 1.28574300 -0.46783611
v 3.7658140e-2 1.28574300 0.46783611
v 0.79463285 0.81790686 0.75697470
v 1.28820586 -0.49205086 -1.5747201e-25
v 1.28820586 -0.49205086 -2.0879132e-14
v 1.28820586 -0.49205086 2.0882601e-14
v -1.29340863 -0.46384886 -1.0673967e-2
v -1.29340863 -0.46384886 1.0673967e-2
v -1.29340863 0.46384886 1.0673967e-2
v -1.29340863 0.46384886 -1.0673967e-2
v 0.79615498 -0.79615498 -0.79615498
v -0.79867691 -0.76960987 0.81116670
v -0.78140604 -0.78028381 0.81776357
v -0.49473172 -2.9760627e-2 1.28161240
v -0.51200253 -1.9086659e-2 1.27501559
v -1.9086659e-2 1.27501559 0.51200253
v -2.9760627e-2 1.28161240 0.49473172
v -0.78028381 0.81776357 0.78140604
v -0.76960987 0.81116670 0.79867691
v 0.49205086 2.0882602e-14 -1.28820586
v 0.49205086 2.0935579e-24 -1.28820586
v 0.49205086 -2.0879131e-14 -1.28820586
v -2.9760627e-2 1.28161240 -0.49473172
v -1.9086659e-2 1.27501559 -0.51200253
v -0.76960987 0.81116670 -0.79867691
v -0.78028381 0.81776357 -0.78140604
v 2.0879132e-14 1.28820586 0.49205086
v -2.0879132e-14 1.28820586 0.49205086
v 0.0000000e+0 1.28820586 0.49205086
v -0.49205086 -2.0935579e-24 1.28820586
v -0.49205086 -2.0879133e-14 1.28820586
v -0.49205086 2.0882600e-14 1.28820586
v -0.75697470 -0.79463285 -0.81790686
v -0.46783611 -3.7658140e-2 -1.28574300
v 0.46783611 -3.7658140e-2 -1.28574300
v 0.75697470 -0.79463285 -0.81790686
v -1.2366579e-18 -1.26246893 -0.52876824
v -2.9760627e-2 -1.28161240 0.49473172
v -1.9086659e-2 -1.27501559 0.51200253
v -0.76960987 -0.81116670 0.79867691
v -0.78028381 -0.81776357 0.78140604
v -0.81790686 -0.75697470 -0.79463285
v -1.28574300 -0.46783611 -3.7658140e-2
v -1.28574300 0.46783611 -3.7658140e-2
v -0.81790686 0.75697470 -0.79463285
v -0.52876824 -5.5796467e-24 -1.26246893
v 0.49205086 -2.0882602e-14 1.28820586
v 0.49205086 -2.0935579e-24 1.28820586
v 0.49205086 2.0879131e-14 1.28820586
v 0.79615498 0.79615498 -0.79615498
v -0.46783611 3.7658140e-2 1.28574300
v 0.46783611 3.7658140e-2 1.28574300
v 0.75697470 0.79463285 0.81790686
v -1.2366579e-18 1.26246893 0.52876824
v -0.75697470 0.79463285 0.81790686
v 1.28820586 0.49205086 1.5747201e-25
v 1.28820586 0.49205086 2.0879132e-14
v 1.28820586 0.49205086 -2.0882601e-14
v 0.79615498 0.79615498 0.79615498
v 0.49473172 -2.9760627e-2 -1.28161240
v 0.51200253 -1.9086659e-2 -1.27501559
v 0.79867691 -0.76960987 -0.81116670
v 0.78140604 -0.78028381 -0.81776357
v 1.0673967e-2 1.29340863 -0.46384886
v -1.0673967e-2 1.29340863 -0.46384886
v -1.0673967e-2 1.29340863 0.46384886
v 1.0673967e-2 1.29340863 0.46384886
v 1.29340863 -0.46384886 1.0673967e-2
v 1.29340863 -0.46384886 -1.0673967e-2
v 1.29340863 0.46384886 -1.0673967e-2
v 1.29340863 0.46384886 1.0673967e-2
v 0.46384886 1.0673967e-2 -1.29340863
v 0.46384886 -1.0673967e-2 -1.29340863
v -0.46384886 -1.0673967e-2 -1.29340863
v -0.46384886 1.0673967e-2 -1.29340863
v -0.46783611 3.7658140e-2 -1.28574300
v -0.75697470 0.79463285 -0.81790686
v 0.0000000e+0 1.26246893 -0.52876824
v 0.75697470 0.79463285 -0.81790686
v 0.46783611 3.7658140e-2 -1.28574300
v -1.28820586 0.49205086 -2.0879131e-14
v -1.28820586 0.49205086 2.0882602e-14
v -1.28820586 0.49205086 1.5747201e-25
v -0.79615498 0.79615498 0.79615498
v -0.79615498 -0.79615498 0.79615498
v 1.28574300 -0.46783611 -3.7658140e-2
v 0.81790686 -0.75697470 -0.79463285
v 0.52876824 -5.5796467e-24 -1.26246893
v 0.81790686 0.75697470 -0.79463285
v 1.28574300 0.46783611 -3.7658140e-2
v 0.78140604 -0.78028381 0.81776357
v 0.79867691 -0.76960987 0.81116670
v 0.51200253 -1.9086659e-2 1.27501559
v 0.49473172 -2.9760627e-2 1.28161240
v -1.27501559 0.51200253 1.9086659e-2
v -1.28161240 0.49473172 2.9760627e-2
v -0.81776357 0.78140604 0.78028381
v -0.81116670 0.79867691 0.76960987
v -0.78140604 0.78028381 0.81776357
v -0.79867691 0.76960987 0.81116670
v -0.51200253 1.9086659e-2 1.27501559
v -0.49473172 2.9760627e-2 1.28161240
v -1.28161240 0.49473172 -2.9760627e-2
v -1.27501559 0.51200253 -1.9086659e-2
v -0.81116670 0.79867691 -0.76960987
v -0.81776357 0.78140604 -0.78028381
v 2.0879132e-14 -1.28820586 0.49205086
v 0.0000000e+0 -1.28820586 0.49205086
v -2.0879132e-14 -1.28820586 0.49205086
v -1.28820586 -0.49205086 -2.0882602e-14
v -1.28820586 -0.49205086 -1.5747201e-25
v -1.28820586 -0.49205086 2.0879131e-14
v -1.0673967e-2 -1.29340863 -0.46384886
v 1.0673967e-2 -1.29340863 -0.46384886
v 1.0673967e-2 -1.29340863 0.46384886
v -1.0673967e-2 -1.29340863 0.46384886
v 2.9760627e-2 1.28161240 0.49473172
v 1.9086659e-2 1.27501559 0.51200253
v 0.76960987 0.81116670 0.79867691
v 0.78028381 0.81776357 0.78140604
v -0.49473172 2.9760627e-2 -1.28161240
v -0.51200253 1.9086659e-2 -1.27501559
v -0.79867691 0.76960987 -0.81116670
v -0.78140604 0.78028381 -0.81776357
v -1.28161240 -0.49473172 2.9760627e-2
v -1.27501559 -0.51200253 1.9086659e-2
v -0.81116670 -0.79867691 0.76960987
v -0.81776357 -0.78140604 0.78028381
v -0.79615498 0.79615498 -0.79615498
v 2.9760627e-2 -1.28161240 -0.49473172
v 1.9086659e-2 -1.27501559 -0.51200253
v 0.76960987 -0.81116670 -0.79867691
v 0.78028381 -0.81776357 -0.78140604
v 1.9086659e-2 1.27501559 -0.51200253
v 2.9760627e-2 1.28161240 -0.49473172
v 0.78028381 0.81776357 -0.78140604
v 0.76960987 0.81116670 -0.79867691
v 1.27501559 -0.51200253 1.9086659e-2
v 1.28161240 -0.49473172 2.9760627e-2
v 0.81776357 -0.78140604 0.78028381
v 0.81116670 -0.79867691 0.76960987
v 0.46384886 -1.0673967e-2 1.29340863
v 0.46384886 1.0673967e-2 1.29340863
v -0.46384886 1.0673967e-2 1.29340863
v -0.46384886 -1.0673967e-2 1.29340863
vn 0.12416737 0.95010065 -0.28616642
vn 0.0000000e+0 0.87336164 -0.48707231
vn -0.12416737 0.95010065 -0.28616642
vn -0.57735027 -0.57735027 -0.57735027
vn -0.15881075 -0.81285114 -0.56040358
vn -0.28159707 -0.88873716 -0.36173106
vn -0.45111986 -0.78396617 -0.42648319
vn -0.32833393 -0.70808000 -0.62515561
vn -0.56040358 -0.15881075 -0.81285114
vn -0.36173106 -0.28159707 -0.88873716
vn -0.42648319 -0.45111986 -0.78396617
vn -0.62515561 -0.32833393 -0.70808000
vn -0.56963007 0.79658907 -0.20240413
vn -0.69472244 0.71927792 0.0000000e+0
vn -0.56963007 0.79658907 0.20240413
vn -0.36722632 0.92168140 0.12509290
vn -0.36722632 0.92168140 -0.12509290
vn -0.69472244 -0.71927792 0.0000000e+0
vn -0.56963007 -0.79658907 -0.20240413
vn -0.36722632 -0.92168140 -0.12509290
vn -0.36722632 -0.92168140 0.12509290
vn -0.56963007 -0.79658907 0.20240413
vn 0.71927792 7.0575790e-17 0.69472244
vn 0.79658907 -0.20240413 0.56963007
vn 0.92168140 -0.12509290 0.36722632
vn 0.92168140 0.12509290 0.36722632
vn 0.79658907 0.20240413 0.56963007
vn -0.79658907 -0.20240413 0.56963007
vn -0.71927792 9.1748527e-17 0.69472244
vn -0.79658907 0.20240413 0.56963007
vn -0.92168140 0.12509290 0.36722632
vn -0.92168140 -0.12509290 0.36722632
vn -0.81285114 -0.56040358 -0.15881075
vn -0.88873716 -0.36173106 -0.28159707
vn -0.78396617 -0.42648319 -0.45111986
vn -0.70808000 -0.62515561 -0.32833393
vn 0.56963007 -0.79658907 -0.20240413
vn 0.69472244 -0.71927792 0.0000000e+0
vn 0.56963007 -0.79658907 0.20240413
vn 0.36722632 -0.92168140 0.12509290
vn 0.36722632 -0.92168140 -0.12509290
vn 0.57735027 -0.57735027 0.57735027
vn 0.62515561 0.32833393 0.70808000
vn 0.42648319 0.45111986 0.78396617
vn 0.36173106 0.28159707 0.88873716
vn 0.56040358 0.15881075 0.81285114
vn 0.56040358 0.15881075 -0.81285114
vn 0.36173106 0.28159707 -0.88873716
vn 0.42648319 0.45111986 -0.78396617
vn 0.62515561 0.32833393 -0.70808000
vn 0.0000000e+0 -0.87336164 -0.48707231
vn 0.12416737 -0.95010065 -0.28616642
vn -0.12416737 -0.95010065 -0.28616642
vn -0.48707231 -2.9932817e-16 -0.87336164
vn -0.28616642 0.12416737 -0.95010065
vn -0.28616642 -0.12416737 -0.95010065
vn 0.88873716 -0.36173106 -0.28159707
vn 0.81285114 -0.56040358 -0.15881075
vn 0.70808000 -0.62515561 -0.32833393
vn 0.78396617 -0.42648319 -0.45111986
vn 0.81285114 0.56040358 -0.15881075
vn 0.88873716 0.36173106 -0.28159707
vn 0.78396617 0.42648319 -0.45111986
vn 0.70808000 0.62515561 -0.32833393
vn 0.12509290 -0.36722632 0.92168140
vn -0.12509290 -0.36722632 0.92168140
vn -0.20240413 -0.56963007 0.79658907
vn 1.2703642e-16 -0.69472244 0.71927792
vn 0.20240413 -0.56963007 0.79658907
vn 0.15881075 -0.81285114 0.56040358
vn 0.28159707 -0.88873716 0.36173106
vn 0.45111986 -0.78396617 0.42648319
vn 0.32833393 -0.70808000 0.62515561
vn 0.88873716 0.36173106 0.28159707
vn 0.81285114 0.56040358 0.15881075
vn 0.70808000 0.62515561 0.32833393
vn 0.78396617 0.42648319 0.45111986
vn 0.69472244 0.71927792 -7.0575790e-18
vn 0.56963007 0.79658907 -0.20240413
vn 0.36722632 0.92168140 -0.12509290
vn 0.36722632 0.92168140 0.12509290
vn 0.56963007 0.79658907 0.20240413
vn 0.87336164 -0.48707231 1.4031008e-16
vn 0.95010065 -0.28616642 -0.12416737
vn 0.95010065 -0.28616642 0.12416737
vn -0.98688732 -0.10477110 -0.12278616
vn -0.98688732 -0.10477110 0.12278616
vn -0.98688732 0.10477110 0.12278616
vn -0.98688732 0.10477110 -0.12278616
vn 0.57735027 -0.57735027 -0.57735027
vn -0.62515561 -0.32833393 0.70808000
vn -0.42648319 -0.45111986 0.78396617
vn -0.36173106 -0.28159707 0.88873716
vn -0.56040358 -0.15881075 0.81285114
vn -0.15881075 0.81285114 0.56040358
vn -0.28159707 0.88873716 0.36173106
vn -0.45111986 0.78396617 0.42648319
vn -0.32833393 0.70808000 0.62515561
vn 0.28616642 0.12416737 -0.95010065
vn 0.48707231 -3.0868217e-16 -0.87336164
vn 0.28616642 -0.12416737 -0.95010065
vn -0.28159707 0.88873716 -0.36173106
vn -0.15881075 0.81285114 -0.56040358
vn -0.32833393 0.70808000 -0.62515561
vn -0.45111986 0.78396617 -0.42648319
vn 0.12416737 0.95010065 0.28616642
vn -0.12416737 0.95010065 0.28616642
vn 0.0000000e+0 0.87336164 0.48707231
vn -0.48707231 2.9932817e-16 0.87336164
vn -0.28616642 -0.12416737 0.95010065
vn -0.28616642 0.12416737 0.95010065
vn -0.20240413 -0.56963007 -0.79658907
vn -0.12509290 -0.36722632 -0.92168140
vn 0.12509290 -0.36722632 -0.92168140
vn 0.20240413 -0.56963007 -0.79658907
vn -3.0347590e-16 -0.69472244 -0.71927792
vn -0.28159707 -0.88873716 0.36173106
vn -0.15881075 -0.81285114 0.56040358
vn -0.32833393 -0.70808000 0.62515561
vn -0.45111986 -0.78396617 0.42648319
vn -0.79658907 -0.20240413 -0.56963007
vn -0.92168140 -0.12509290 -0.36722632
vn -0.92168140 0.12509290 -0.36722632
vn -0.79658907 0.20240413 -0.56963007
vn -0.71927792 -1.1997884e-16 -0.69472244
vn 0.28616642 -0.12416737 0.95010065
vn 0.48707231 3.0868217e-16 0.87336164
vn 0.28616642 0.12416737 0.95010065
vn 0.57735027 0.57735027 -0.57735027
vn -0.12509290 0.36722632 0.92168140
vn 0.12509290 0.36722632 0.92168140
vn 0.20240413 0.56963007 0.79658907
vn -3.0347590e-16 0.69472244 0.71927792
vn -0.20240413 0.56963007 0.79658907
vn 0.87336164 0.48707231 -1.4031008e-16
vn 0.95010065 0.28616642 0.12416737
vn 0.95010065 0.28616642 -0.12416737
vn 0.57735027 0.57735027 0.57735027
vn 0.36173106 -0.28159707 -0.88873716
vn 0.56040358 -0.15881075 -0.81285114
vn 0.62515561 -0.32833393 -0.70808000
vn 0.42648319 -0.45111986 -0.78396617
vn 0.12278616 0.98688732 -0.10477110
vn -0.12278616 0.98688732 -0.10477110
vn -0.12278616 0.98688732 0.10477110
vn 0.12278616 0.98688732 0.10477110
vn 0.98688732 -0.10477110 0.12278616
vn 0.98688732 -0.10477110 -0.12278616
vn 0.98688732 0.10477110 -0.12278616
vn 0.98688732 0.10477110 0.12278616
vn 0.10477110 0.12278616 -0.98688732
vn 0.10477110 -0.12278616 -0.98688732
vn -0.10477110 -0.12278616 -0.98688732
vn -0.10477110 0.12278616 -0.98688732
vn -0.12509290 0.36722632 -0.92168140
vn -0.20240413 0.56963007 -0.79658907
vn 5.5754874e-16 0.69472244 -0.71927792
vn 0.20240413 0.56963007 -0.79658907
vn 0.12509290 0.36722632 -0.92168140
vn -0.95010065 0.28616642 -0.12416737
vn -0.95010065 0.28616642 0.12416737
vn -0.87336164 0.48707231 -1.4966408e-16
vn -0.57735027 0.57735027 0.57735027
vn -0.57735027 -0.57735027 0.57735027
vn 0.92168140 -0.12509290 -0.36722632
vn 0.79658907 -0.20240413 -0.56963007
vn 0.71927792 -1.4820916e-16 -0.69472244
vn 0.79658907 0.20240413 -0.56963007
vn 0.92168140 0.12509290 -0.36722632
vn 0.42648319 -0.45111986 0.78396617
vn 0.62515561 -0.32833393 0.70808000
vn 0.56040358 -0.15881075 0.81285114
vn 0.36173106 -0.28159707 0.88873716
vn -0.81285114 0.56040358 0.15881075
vn -0.88873716 0.36173106 0.28159707
vn -0.78396617 0.42648319 0.45111986
vn -0.70808000 0.62515561 0.32833393
vn -0.42648319 0.45111986 0.78396617
vn -0.62515561 0.32833393 0.70808000
vn -0.56040358 0.15881075 0.81285114
vn -0.36173106 0.28159707 0.88873716
vn -0.88873716 0.36173106 -0.28159707
vn -0.81285114 0.56040358 -0.15881075
vn -0.70808000 0.62515561 -0.32833393
vn -0.78396617 0.42648319 -0.45111986
vn 0.12416737 -0.95010065 0.28616642
vn 0.0000000e+0 -0.87336164 0.48707231
vn -0.12416737 -0.95010065 0.28616642
vn -0.95010065 -0.28616642 -0.12416737
vn -0.87336164 -0.48707231 1.4966408e-16
vn -0.95010065 -0.28616642 0.12416737
vn -0.12278616 -0.98688732 -0.10477110
vn 0.12278616 -0.98688732 -0.10477110
vn 0.12278616 -0.98688732 0.10477110
vn -0.12278616 -0.98688732 0.10477110
vn 0.28159707 0.88873716 0.36173106
vn 0.15881075 0.81285114 0.56040358
vn 0.32833393 0.70808000 0.62515561
vn 0.45111986 0.78396617 0.42648319
vn -0.36173106 0.28159707 -0.88873716
vn -0.56040358 0.15881075 -0.81285114
vn -0.62515561 0.32833393 -0.70808000
vn -0.42648319 0.45111986 -0.78396617
vn -0.88873716 -0.36173106 0.28159707
vn -0.81285114 -0.56040358 0.15881075
vn -0.70808000 -0.62515561 0.32833393
vn -0.78396617 -0.42648319 0.45111986
vn -0.57735027 0.57735027 -0.57735027
vn 0.28159707 -0.88873716 -0.36173106
vn 0.15881075 -0.81285114 -0.56040358
vn 0.32833393 -0.70808000 -0.62515561
vn 0.45111986 -0.78396617 -0.42648319
vn 0.15881075 0.81285114 -0.56040358
vn 0.28159707 0.88873716 -0.36173106
vn 0.45111986 0.78396617 -0.42648319
vn 0.32833393 0.70808000 -0.62515561
vn 0.81285114 -0.56040358 0.15881075
vn 0.88873716 -0.36173106 0.28159707
vn 0.78396617 -0.42648319 0.45111986
vn 0.70808000 -0.62515561 0.32833393
vn 0.10477110 -0.12278616 0.98688732
vn 0.10477110 0.12278616 0.98688732
vn -0.10477110 0.12278616 0.98688732
vn -0.10477110 -0.12278616 0.98688732
g dodecahedr_default2
usemtl default2
f 1//1 214//214 213//213 2//2
f 2//2 3//3 1//1
f 2//2 103//103 102//102 3//3
f 2//2 213//213 157//157 103//103
f 3//3 144//144 143//143 1//1
f 4//4 8//8 7//7
f 4//4 11//11 112//112 8//8
f 4//4 12//12 11//11
f 4//4 35//35 121//121 12//12
f 4//4 36//36 35//35
f 5//5 51//51 53//53 6//6
f 5//5 116//116 210//210 51//51
f 6//6 7//7 8//8 5//5
f 6//6 20//20 19//19 7//7
f 6//6 53//53 192//192 20//20
f 7//7 19//19 36//36 4//4
f 8//8 112//112 116//116 5//5
f 9//9 54//54 56//56 10//10
f 9//9 125//125 201//201 54//54
f 10//10 11//11 12//12 9//9
f 10//10 113//113 112//112 11//11
f 12//12 121//121 125//125 9//9
f 13//13 184//184 183//183 14//14
f 14//14 15//15 16//16 17//17 13//13
f 14//14 174//174 177//177 15//15
f 14//14 183//183 162//162 174//174
f 15//15 97//97 96//96 16//16
f 15//15 177//177 163//163 97//97
f 16//16 145//145 144//144 17//17
f 17//17 102//102 105//105 13//13
f 18//18 33//33 36//36 19//19
f 18//18 205//205 190//190 33//33
f 19//19 20//20 21//21 22//22 18//18
f 20//20 192//192 195//195 21//21
f 21//21 117//117 120//120 22//22
f 21//21 195//195 188//188 117//117
f 22//22 206//206 205//205 18//18
f 23//23 172//172 171//171 24//24
f 24//24 25//25 26//26 27//27 23//23
f 24//24 219//219 218//218 25//25
f 25//25 147//147 150//150 26//26
f 25//25 218//218 85//85 147//147
f 26//26 74//74 77//77 27//27
f 26//26 150//150 136//136 74//74
f 27//27 43//43 46//46 23//23
f 27//27 77//77 138//138 43//43
f 28//28 91//91 94//94 29//29
f 28//28 207//207 164//164 91//91
f 29//29 30//30 31//31 32//32 28//28
f 29//29 180//180 179//179 30//30
f 30//30 176//176 175//175 31//31
f 30//30 179//179 163//163 176//176
f 31//31 88//88 87//87 32//32
f 31//31 175//175 161//161 88//88
f 32//32 204//204 207//207 28//28
f 33//33 190//190 189//189 34//34
f 34//34 35//35 36//36 33//33
f 34//34 122//122 121//121 35//35
f 34//34 189//189 86//86 122//122
f 37//37 59//59 58//58 38//38
f 37//37 212//212 90//90 59//59
f 38//38 39//39 40//40 41//41 37//37
f 38//38 217//217 220//220 39//39
f 39//39 72//72 71//71 40//40
f 39//39 220//220 42//42 72//72
f 40//40 194//194 193//193 41//41
f 41//41 209//209 212//212 37//37
f 42//42 73//73 72//72
f 42//42 170//170 69//69 73//73
f 42//42 171//171 170//170
f 42//42 220//220 219//219
f 43//43 138//138 44//44
f 44//44 45//45 46//46 43//43
f 44//44 132//132 131//131 45//45
f 44//44 138//138 198//198 132//132
f 45//45 128//128 127//127 46//46
f 45//45 131//131 222//222 128//128
f 46//46 127//127 172//172 23//23
f 47//47 100//100 99//99 48//48
f 47//47 167//167 140//140 100//100
f 48//48 49//49 50//50 47//47
f 48//48 159//159 158//158 49//49
f 49//49 129//129 50//50
f 49//49 158//158 216//216 129//129
f 50//50 168//168 167//167 47//47
f 51//51 210//210 209//209 52//52
f 52//52 53//53 51//51
f 52//52 193//193 192//192 53//53
f 54//54 201//201 200//200 55//55
f 55//55 56//56 54//54
f 55//55 154//154 153//153 56//56
f 55//55 200//200 155//155 154//154
f 56//56 153//153 113//113 10//10
f 57//57 84//84 83//83 58//58
f 57//57 165//165 148//148 84//84
f 58//58 59//59 60//60 57//57
f 58//58 83//83 217//217 38//38
f 59//59 90//90 60//60
f 60//60 166//166 165//165 57//57
f 61//61 135//135 137//137 62//62
f 62//62 63//63 64//64 61//61
f 62//62 169//169 168//168 63//63
f 63//63 129//129 64//64
f 64//64 79//79 78//78 61//61
f 64//64 129//129 215//215 79//79
f 65//65 221//221 224//224 66//66
f 66//66 67//67 68//68 69//69 65//65
f 66//66 93//93 92//92 67//67
f 66//66 224//224 110//110 93//93
f 67//67 119//119 118//118 68//68
f 68//68 70//70 73//73 69//69
f 68//68 118//118 187//187 70//70
f 69//69 170//170 173//173 65//65
f 70//70 187//187 186//186 71//71
f 71//71 72//72 73//73 70//70
f 71//71 186//186 194//194 40//40
f 74//74 136//136 135//135 75//75
f 75//75 76//76 77//77 74//74
f 75//75 78//78 82//82 76//76
f 76//76 138//138 77//77
f 78//78 75//75 135//135 61//61
f 79//79 80//80 81//81 82//82 78//78
f 79//79 215//215 214//214 80//80
f 80//80 143//143 146//146 81//81
f 81//81 196//196 199//199 82//82
f 82//82 199//199 138//138 76//76
f 84//84 85//85 83//83
f 84//84 148//148 147//147 85//85
f 85//85 218//218 217//217 83//83
f 86//86 189//189 191//191 87//87
f 87//87 88//88 89//89 86//86
f 87//87 191//191 204//204 32//32
f 88//88 161//161 160//160 89//89
f 89//89 123//123 122//122 86//86
f 89//89 160//160 182//182 123//123
f 90//90 141//141 166//166 60//60
f 90//90 142//142 141//141
f 90//90 211//211 115//115 142//142
f 90//90 212//212 211//211
f 91//91 164//164 92//92
f 92//92 93//93 94//94 91//91
f 92//92 164//164 119//119 67//67
f 93//93 110//110 109//109 94//94
f 94//94 109//109 180//180 29//29
f 95//95 108//108 107//107 96//96
f 95//95 133//133 197//197 108//108
f 96//96 97//97 98//98 95//95
f 96//96 107//107 145//145 16//16
f 97//97 163//163 98//98
f 98//98 134//134 133//133 95//95
f 98//98 163//163 178//178 134//134
f 99//99 151//151 159//159 48//48
f 100//100 101//101 99//99
f 100//100 140//140 139//139 101//101
f 101//101 152//152 151//151 99//99
f 102//102 17//17 144//144 3//3
f 103//103 104//104 105//105 102//102
f 103//103 157//157 156//156 104//104
f 104//104 208//208 105//105
f 105//105 208//208 184//184 13//13
f 106//106 146//146 145//145 107//107
f 107//107 108//108 106//106
f 108//108 197//197 196//196 106//106
f 110//110 111//111 109//109
f 110//110 224//224 223//223 111//111
f 111//111 181//181 180//180 109//109
f 111//111 223//223 130//130 181//181
f 113//113 114//114 115//115 116//116 112//112
f 113//113 153//153 152//152 114//114
f 114//114 139//139 142//142 115//115
f 115//115 211//211 210//210 116//116
f 117//117 188//188 187//187 118//118
f 118//118 119//119 120//120 117//117
f 119//119 164//164 120//120
f 120//120 164//164 206//206 22//22
f 122//122 123//123 124//124 125//125 121//121
f 123//123 182//182 185//185 124//124
f 124//124 202//202 201//201 125//125
f 126//126 173//173 172//172 127//127
f 127//127 128//128 126//126
f 128//128 222//222 221//221 126//126
f 129//129 63//63 168//168 50//50
f 129//129 216//216 215//215
f 130//130 223//223 222//222 131//131
f 131//131 132//132 133//133 134//134 130//130
f 132//132 198//198 197//197 133//133
f 134//134 178//178 181//181 130//130
f 136//136 137//137 135//135
f 136//136 150//150 149//149 137//137
f 137//137 149//149 169//169 62//62
f 138//138 199//199 198//198
f 139//139 114//114 152//152 101//101
f 140//140 141//141 142//142 139//139
f 140//140 167//167 166//166 141//141
f 143//143 80//80 214//214 1//1
f 144//144 145//145 146//146 143//143
f 146//146 106//106 196//196 81//81
f 148//148 149//149 150//150 147//147
f 148//148 165//165 169//169 149//149
f 152//152 153//153 154//154 151//151
f 154//154 155//155 159//159 151//151
f 155//155 200//200 203//203 156//156
f 156//156 157//157 158//158 159//159 155//155
f 156//156 203//203 208//208 104//104
f 157//157 213//213 216//216 158//158
f 161//161 162//162 160//160
f 161//161 175//175 174//174 162//162
f 162//162 183//183 182//182 160//160
f 163//163 177//177 176//176
f 163//163 179//179 178//178
f 164//164 207//207 206//206
f 166//166 167//167 168//168 169//169 165//165
f 171//171 42//42 219//219 24//24
f 171//171 172//172 173//173 170//170
f 173//173 126//126 221//221 65//65
f 175//175 176//176 177//177 174//174
f 179//179 180//180 181//181 178//178
f 183//183 184//184 185//185 182//182
f 184//184 208//208 185//185
f 185//185 208//208 202//202 124//124
f 187//187 188//188 186//186
f 188//188 195//195 194//194 186//186
f 190//190 191//191 189//189
f 190//190 205//205 204//204 191//191
f 193//193 52//52 209//209 41//41
f 193//193 194//194 195//195 192//192
f 197//197 198//198 199//199 196//196
f 201//201 202//202 203//203 200//200
f 202//202 208//208 203//203
f 205//205 206//206 207//207 204//204
f 210//210 211//211 212//212 209//209
f 214//214 215//215 216//216 213//213
f 218//218 219//219 220//220 217//217
f 222//222 223//223 224//224 221//221
