# Exported from Wings 3D 0.99.00b
mtllib d4.mtl
o tetrahedron1
#36 vertices, 20 faces
v -3.3600000e-2 0.97892497 1.9398969e-2
v 3.3600000e-2 0.97892497 1.9398969e-2
v 0.0000000e+0 0.92405640 0.11639381
v 3.3600000e-2 0.97892497 1.9398969e-2
v 4.1633363e-17 0.97892497 -3.8797938e-2
v 0.10080000 0.92405640 -5.8196907e-2
v -4.1633363e-17 0.97892497 -3.8797938e-2
v -3.3600000e-2 0.97892497 1.9398969e-2
v -0.10080000 0.92405640 -5.8196907e-2
v 3.3600000e-2 -0.48946248 1.05770569
v 0.0000000e+0 -0.37972534 1.03830672
v -3.3600000e-2 -0.48946248 1.05770569
v 5.5511151e-17 -0.54433105 1.03830672
v 3.3600000e-2 -0.48946248 1.05770569
v 0.10080000 -0.54433105 0.98010982
v -3.3600000e-2 -0.48946248 1.05770569
v -5.5511151e-17 -0.54433105 1.03830672
v -0.10080000 -0.54433105 0.98010982
v -0.93280000 -0.48946248 -0.49975439
v -0.89920000 -0.37972534 -0.51915336
v -0.89920000 -0.48946248 -0.55795130
v -0.89920000 -0.54433105 -0.51915336
v -0.89920000 -0.54433105 -0.40275955
v -0.93280000 -0.48946248 -0.49975439
v -0.89920000 -0.48946248 -0.55795130
v -0.89920000 -0.54433105 -0.51915336
v -0.79840000 -0.54433105 -0.57735027
v 0.89920000 -0.48946248 -0.55795130
v 0.89920000 -0.37972534 -0.51915336
v 0.93280000 -0.48946248 -0.49975439
v 0.89920000 -0.54433105 -0.51915336
v 0.79840000 -0.54433105 -0.57735027
v 0.89920000 -0.48946248 -0.55795130
v 0.93280000 -0.48946248 -0.49975439
v 0.89920000 -0.54433105 -0.40275955
v 0.89920000 -0.54433105 -0.51915336
vn -0.32144764 0.86758615 0.37942811
vn 0.32144764 0.86758615 0.37942811
vn 5.2794397e-17 0.73091521 0.68246828
vn 0.48931820 0.86758615 8.8667773e-2
vn 0.16787056 0.86758615 -0.46809588
vn 0.59103487 0.73091521 -0.34123414
vn -0.16787056 0.86758615 -0.46809588
vn -0.48931820 0.86758615 8.8667773e-2
vn -0.59103487 0.73091521 -0.34123414
vn 0.32144764 6.8532868e-2 0.94444410
vn 5.2794397e-17 0.39979886 0.91660290
vn -0.32144764 6.8532868e-2 0.94444410
vn 0.16787056 -0.73052041 0.66193610
vn 0.48931820 -0.20559860 0.84752399
vn 0.59103487 -0.56535704 0.57536876
vn -0.48931820 -0.20559860 0.84752399
vn -0.16787056 -0.73052041 0.66193610
vn -0.59103487 -0.56535704 0.57536876
vn -0.97863641 6.8532868e-2 -0.19384022
vn -0.79380139 0.39979886 -0.45830145
vn -0.65718876 6.8532868e-2 -0.75060388
vn -0.65718876 -0.73052041 -0.18558788
vn -0.79380139 -0.56535704 0.22416683
vn -0.97863641 -0.20559860 -3.4966817e-16
vn -0.48931820 -0.20559860 -0.84752399
vn -0.48931820 -0.73052041 -0.47634822
vn -0.20276653 -0.56535704 -0.79953559
vn 0.65718876 6.8532868e-2 -0.75060388
vn 0.79380139 0.39979886 -0.45830145
vn 0.97863641 6.8532868e-2 -0.19384022
vn 0.48931820 -0.73052041 -0.47634822
vn 0.20276653 -0.56535704 -0.79953559
vn 0.48931820 -0.20559860 -0.84752399
vn 0.97863641 -0.20559860 -2.1854260e-17
vn 0.79380139 -0.56535704 0.22416683
vn 0.65718876 -0.73052041 -0.18558788
g tetrahedron1_default
usemtl default
f 1//1 2//2 4//4 5//5 7//7 8//8
f 1//1 3//3 2//2
f 3//3 1//1 8//8 9//9 20//20 19//19 24//24 23//23 18//18 16//16 12//12 11//11
f 4//4 6//6 5//5
f 7//7 9//9 8//8
f 9//9 7//7 5//5 6//6 29//29 28//28 33//33 32//32 27//27 25//25 21//21 20//20
f 10//10 11//11 12//12
f 10//10 12//12 16//16 17//17 13//13 14//14
f 11//11 10//10 14//14 15//15 35//35 34//34 30//30 29//29 6//6 4//4 2//2 3//3
f 13//13 15//15 14//14
f 16//16 18//18 17//17
f 19//19 20//20 21//21
f 19//19 21//21 25//25 26//26 22//22 24//24
f 22//22 23//23 24//24
f 23//23 22//22 26//26 27//27 32//32 31//31 36//36 35//35 15//15 13//13 17//17 18//18
f 25//25 27//27 26//26
f 28//28 29//29 30//30
f 28//28 30//30 34//34 36//36 31//31 33//33
f 31//31 32//32 33//33
f 34//34 35//35 36//36
